<?xml version="1.0" standalone="no"?>
<!DOCTYPE svg PUBLIC "-//W3C//DTD SVG 20010904//EN"
 "http://www.w3.org/TR/2001/REC-SVG-20010904/DTD/svg10.dtd">
<svg version="1.0" xmlns="http://www.w3.org/2000/svg"
 width="124.000000pt" height="70.000000pt" viewBox="0 0 124.000000 70.000000"
 preserveAspectRatio="xMidYMid meet">

<g transform="translate(0.000000,70.000000) scale(0.100000,-0.100000)"
fill="#000000" stroke="none">
<path d="M0 465 c0 -202 2 -235 15 -235 16 0 19 -17 9 -44 -3 -9 -10 -13 -15
-10 -5 3 -9 -6 -9 -20 0 -14 5 -26 10 -26 6 0 5 -8 -2 -20 -7 -10 -9 -22 -5
-26 6 -6 432 38 997 104 l235 28 3 28 c2 16 -1 39 -6 50 -9 20 -32 117 -32
137 0 5 9 9 20 9 13 0 20 7 20 20 0 11 -5 17 -12 15 -9 -4 -14 7 -15 32 -1 21
-4 59 -8 86 -4 37 -3 47 9 47 9 0 12 -7 9 -20 -3 -11 -1 -20 5 -20 5 0 10 23
10 50 l1 50 -620 0 -619 0 0 -235z m627 186 c77 -56 108 -166 79 -280 -22 -86
-93 -191 -130 -191 -3 0 11 17 32 38 65 65 87 122 87 227 0 107 -18 154 -76
192 -79 52 -171 38 -249 -40 -67 -66 -95 -136 -95 -232 0 -92 23 -148 75 -185
37 -27 33 -39 -5 -14 -14 9 -38 38 -53 63 -24 41 -27 56 -27 136 0 78 4 97 28
147 53 108 137 167 238 168 46 0 63 -5 96 -29z m-13 -90 c29 -74 26 -110 -13
-130 -29 -16 -38 -14 -64 14 -20 22 -29 25 -64 19 -33 -5 -46 -14 -65 -42 -28
-45 -52 -51 -72 -20 -14 22 -13 30 10 103 14 44 33 88 44 99 10 10 51 26 91
36 90 21 95 19 133 -79z m56 -182 c0 -5 -4 -9 -10 -9 -5 0 -10 -13 -10 -29 0
-17 -4 -33 -10 -36 -6 -4 -10 11 -10 37 0 37 3 44 20 45 11 1 20 -2 20 -8z
m-56 -15 c8 -21 -15 -69 -33 -69 -24 0 -36 31 -23 59 13 29 46 35 56 10z
m-256 -16 c2 -10 -5 -14 -20 -14 -14 1 -24 -6 -26 -18 -5 -25 14 -44 30 -28 9
9 9 12 0 12 -7 0 -12 5 -12 10 0 6 9 10 20 10 11 0 20 -4 20 -10 0 -5 7 -7 15
-4 11 5 13 2 9 -10 -3 -9 -1 -16 4 -16 6 0 10 13 10 30 -1 25 -3 28 -16 17
-13 -10 -14 -9 -10 3 2 8 14 16 26 18 19 3 22 -1 22 -36 0 -36 -2 -39 -27 -39
-16 0 -43 -3 -62 -7 -37 -9 -51 2 -51 42 0 44 60 80 68 40z m180 -21 c2 -21
-1 -37 -7 -37 -6 0 -11 14 -11 30 0 17 -4 30 -10 30 -5 0 -10 -16 -10 -35 0
-19 -4 -35 -10 -35 -5 0 -10 14 -10 30 0 17 -4 30 -10 30 -5 0 -10 -13 -10
-30 0 -16 -4 -30 -10 -30 -5 0 -10 15 -10 34 0 31 3 35 38 44 51 14 57 11 60
-31z m32 -82 c0 -28 -31 -48 -38 -26 -4 11 -6 11 -13 0 -6 -10 -9 -8 -9 9 0
32 -20 27 -21 -5 0 -24 -2 -25 -8 -9 -7 18 -8 18 -14 3 -10 -26 -37 -21 -37 7
0 27 22 40 39 23 8 -8 11 -8 11 2 0 9 9 12 25 9 14 -3 28 -1 31 3 11 19 34 8
34 -16z m-153 -25 c0 -18 -6 -30 -13 -30 -8 0 -12 11 -11 30 3 39 24 39 24 0z"/>
<path d="M525 600 c-3 -5 -1 -10 4 -10 6 0 11 5 11 10 0 6 -2 10 -4 10 -3 0
-8 -4 -11 -10z"/>
<path d="M410 564 c0 -9 -8 -23 -17 -30 -17 -12 -17 -13 -1 -14 9 0 18 -8 21
-17 3 -16 5 -16 12 2 5 11 16 25 24 32 14 11 14 12 -1 13 -10 0 -18 7 -18 15
0 8 -4 15 -10 15 -5 0 -10 -7 -10 -16z"/>
<path d="M490 550 c0 -5 5 -10 10 -10 6 0 10 5 10 10 0 6 -4 10 -10 10 -5 0
-10 -4 -10 -10z"/>
<path d="M526 531 c-4 -7 -5 -15 -2 -18 9 -9 19 4 14 18 -4 11 -6 11 -12 0z"/>
<path d="M570 350 c0 -5 7 -7 15 -4 8 4 15 8 15 10 0 2 -7 4 -15 4 -8 0 -15
-4 -15 -10z"/>
<path d="M570 320 c0 -5 4 -10 9 -10 6 0 13 5 16 10 3 6 -1 10 -9 10 -9 0 -16
-4 -16 -10z"/>
<path d="M440 225 c0 -8 5 -15 10 -15 6 0 10 7 10 15 0 8 -4 15 -10 15 -5 0
-10 -7 -10 -15z"/>
<path d="M545 230 c-3 -5 -1 -10 4 -10 6 0 11 5 11 10 0 6 -2 10 -4 10 -3 0
-8 -4 -11 -10z"/>
<path d="M960 125 c-113 -13 -343 -36 -512 -51 -176 -16 -302 -32 -295 -36 7
-5 -5 -6 -26 -2 -52 9 -127 -4 -127 -22 0 -12 32 -14 198 -14 108 0 235 4 282
9 189 21 210 22 210 6 0 -13 38 -15 275 -15 l275 0 0 75 0 75 -37 -1 c-21 -1
-130 -12 -243 -24z"/>
</g>
</svg>
